<?xml version="1.0" encoding="UTF-8"?>
<svg width="100px" height="90px" viewBox="0 0 100 90" version="1.1" xmlns="http://www.w3.org/2000/svg" xmlns:xlink="http://www.w3.org/1999/xlink">
    <!-- Generator: Sketch 50.2 (55047) - http://www.bohemiancoding.com/sketch -->
    <title>sketch-symbol</title>
    <desc>Created with Sketch.</desc>
    <defs></defs>
    <g id="Page-1" stroke="none" stroke-width="1" fill="none" fill-rule="evenodd">
        <g id="sketch-symbol" fill-rule="nonzero">
            <polygon id="Shape" fill="#FDB300" points="21.7741937 2.96169646 49.8991937 0 78.0241937 2.96169646 99.7983871 32.0766785 49.8991937 89.9552551 0 32.0766785"></polygon>
            <g id="Group" transform="translate(0.000000, 32.076679)">
                <polygon id="Shape" fill="#EA6C00" points="20.2116751 0 49.8992386 57.8785955 0 0"></polygon>
                <polygon id="Shape" fill="#EA6C00" transform="translate(74.848723, 28.939298) scale(-1, 1) translate(-74.848723, -28.939298) " points="70.1107787 0 99.7983421 57.8785955 49.8991036 0"></polygon>
                <polygon id="Shape" fill="#FDAD00" points="20.2116751 0 79.586802 0 49.8992386 57.8785955"></polygon>
            </g>
            <g id="Group">
                <polygon id="Shape" fill="#FDD231" points="49.8992386 0 21.7741117 2.9616573 20.2116751 32.0766573"></polygon>
                <polygon id="Shape" fill="#FDD231" transform="translate(64.742867, 16.038329) scale(-1, 1) translate(-64.742867, -16.038329) " points="79.5866487 0 51.4615218 2.9616573 49.8990853 32.0766573"></polygon>
                <polygon id="Shape" fill="#FDAD00" transform="translate(88.911286, 17.519157) scale(-1, 1) translate(-88.911286, -17.519157) " points="78.0241036 32.0766573 99.798469 2.9616573 98.2357787 32.0766573"></polygon>
                <polygon id="Shape" fill="#FDAD00" points="0 32.0766573 21.7741117 2.9616573 20.2116751 32.0766573"></polygon>
                <polygon id="Shape" fill="#FEEEB7" points="49.8992386 0 20.2116751 32.0766573 79.586802 32.0766573"></polygon>
            </g>
        </g>
    </g>
</svg>